<svg width="18" height="21" viewBox="0 0 18 21" fill="none" xmlns="http://www.w3.org/2000/svg">
<path d="M6.92688 1.03678C6.92688 2.0545 6.92688 2.07334 7.49227 2.07334C7.92575 2.07334 8.05767 2.14873 8.05767 2.45028C8.05767 2.65759 7.94459 2.82721 7.79382 2.82721C7.64305 2.82721 6.92688 3.03452 6.21071 3.27952C2.93141 4.39147 0.707511 7.02999 0.10442 10.5355C-0.347897 13.2117 0.688664 16.1706 2.83717 18.2249C4.64644 19.9776 6.51225 20.7314 9 20.7314C11.4877 20.7314 13.3536 19.9776 15.1628 18.2249C17.3113 16.1706 18.3479 13.2117 17.8956 10.5355C17.2925 7.02999 15.0686 4.39147 11.7893 3.27952C11.0731 3.03452 10.357 2.82721 10.2062 2.82721C10.0554 2.82721 9.94233 2.65759 9.94233 2.45028C9.94233 2.14873 10.0743 2.07334 10.5077 2.07334C11.0731 2.07334 11.0731 2.0545 11.0731 1.03678V0.000221252H9H6.92688V1.03678ZM12.0531 5.12649C14.6917 6.35151 16.3502 8.91465 16.3502 11.7793C16.3502 13.8901 15.5398 15.6806 13.919 17.226C12.807 18.2437 11.8647 18.7149 10.1685 19.0541C8.86807 19.3368 7.3415 19.1106 5.85262 18.4699C4.8726 18.0364 3.27064 16.5664 2.66755 15.5298C1.04675 12.7782 1.38599 9.27273 3.47796 6.9546C4.36374 5.97458 5.04222 5.50342 6.34263 4.95687C7.24727 4.57994 7.66189 4.5234 9.18847 4.56109C10.6585 4.61763 11.1674 4.71186 12.0531 5.12649Z" fill="#737373"/>
<path d="M7.87033 5.82315C6.00452 6.20008 4.28948 7.53819 3.47908 9.21554C3.13984 9.91286 3.06445 10.4217 3.06445 11.7787C3.06445 13.2864 3.12099 13.6068 3.611 14.568C4.66641 16.6411 6.60761 17.8096 9.01997 17.8096C10.2827 17.8096 10.6031 17.7342 11.7527 17.1499C12.695 16.6788 13.2416 16.2265 13.7505 15.548C14.1462 15.0203 14.4666 14.5303 14.4666 14.4549C14.4666 14.323 13.0343 13.6256 9.99999 12.2498L9.00112 11.7975V8.72552C9.00112 6.38855 8.94458 5.65353 8.77496 5.67238C8.64304 5.69123 8.22841 5.74777 7.87033 5.82315Z" fill="#737373"/>
</svg>
